<?xml version="1.0" encoding="iso-8859-1"?>
<!-- Generator: Adobe Illustrator 16.0.0, SVG Export Plug-In . SVG Version: 6.00 Build 0)  -->
<!DOCTYPE svg PUBLIC "-//W3C//DTD SVG 1.1//EN" "http://www.w3.org/Graphics/SVG/1.1/DTD/svg11.dtd">
<svg version="1.1" id="Capa_1" xmlns="http://www.w3.org/2000/svg" xmlns:xlink="http://www.w3.org/1999/xlink" x="0px" y="0px"
	 width="30.932px" height="30.932px" viewBox="0 0 30.932 30.932" style="enable-background:new 0 0 30.932 30.932;"
	 xml:space="preserve">
<g>
	<g>
		<g>
			<path d="M19.382,17.562l-0.005,1.053v0.012H0.532v1.725c0,0,2.318,5.694,2.332,5.795c0.729-0.66,2.291-1.679,4.262-0.649
				c0.892,0.465,1.96,0.463,2.849-0.009c0.83-0.44,1.987-0.693,3.333,0.01c0.893,0.466,1.959,0.462,2.849-0.01
				c0.83-0.44,1.988-0.692,3.333,0.011c0.893,0.466,1.957,0.462,2.848-0.011c0.998-0.528,2.47-0.785,4.174,0.563l4.42-8.489H19.382
				L19.382,17.562z"/>
		</g>
		<g>
			<path d="M1.596,18.094H6.92v-6.92l1.324-1.065H4.258V8.564h1.377V7.943H4.258V4.785H3.726v3.159H2.35v0.621h1.376v1.544H0v1.065
				h1.597L1.596,18.094L1.596,18.094z M4.227,11.941h1.732v1.59H4.227V11.941z M4.227,14.489h1.732v1.589H4.227V14.489z"/>
		</g>
		<g>
			<rect x="7.852" y="13.531" width="10.958" height="4.563"/>
		</g>
		<g>
			<rect x="19.38" y="12.431" width="10.959" height="4.563"/>
		</g>
		<g>
			<rect x="14.867" y="8.4" width="3.946" height="4.563"/>
		</g>
		<g>
			<rect x="10.175" y="10.404" width="3.946" height="2.56"/>
		</g>
		<g>
			<rect x="10.175" y="7.276" width="3.946" height="2.56"/>
		</g>
		<g>
			<rect x="19.38" y="6.176" width="3.944" height="2.56"/>
		</g>
		<g>
			<rect x="19.38" y="9.304" width="8.416" height="2.56"/>
		</g>
	</g>
</g>
<g>
</g>
<g>
</g>
<g>
</g>
<g>
</g>
<g>
</g>
<g>
</g>
<g>
</g>
<g>
</g>
<g>
</g>
<g>
</g>
<g>
</g>
<g>
</g>
<g>
</g>
<g>
</g>
<g>
</g>
</svg>
