<svg height="512pt" viewBox="0 -58 512.00004 512" width="512pt" xmlns="http://www.w3.org/2000/svg"><path d="m386.664062 102.917969c-3.363281 1.878906-7.558593-.023438-8.480468-3.765625-14.019532-56.929688-65.414063-99.152344-126.671875-99.152344-56.417969 0-104.46875 35.8125-122.667969 85.949219-1.113281 3.066406-4.558594 4.574219-7.597656 3.386719-58.839844-23.078126-121.667969 21.308593-121.24218775 83.367187.34765575 50.925781 43.28515575 89.582031 89.88281275 88.203125v-26.523438c0-8.683593 7.039062-15.726562 15.726562-15.726562h30.023438c1.550781-4.414062 3.34375-8.742188 5.367187-12.957031l-21.226562-21.230469c-6.144532-6.140625-6.144532-16.101562 0-22.246094l37.53125-37.53125c6.140625-6.140625 16.09375-6.140625 22.234375 0l21.230469 21.230469c4.222656-2.023437 8.542968-3.816406 12.96875-5.367187v-30.027344c0-8.683594 7.039062-15.722656 15.722656-15.722656h53.070312c8.683594 0 15.722656 7.039062 15.722656 15.722656v30.027344c4.425782 1.550781 8.746094 3.34375 12.96875 5.367187l21.230469-21.230469c6.144531-6.132812 16.09375-6.132812 22.234375 0l37.53125 37.53125c6.144532 6.144532 6.144532 16.105469 0 22.246094l-21.226562 21.230469c2.023437 4.214843 3.816406 8.542969 5.367187 12.957031h30.023438c8.6875 0 15.726562 7.042969 15.726562 15.726562v26.417969c59.082031 0 89.886719-42.625 89.886719-84.203125 0-64.542968-69.578125-104.789062-125.335938-73.679687zm0 0"/><path d="m349.355469 238.105469c-2.324219-9.5625-6.089844-18.660157-11.207031-27.058594-3.773438-6.195313-2.808594-14.175781 2.316406-19.300781l18.402344-18.398438-15.296876-15.296875-18.398437 18.410157c-5.128906 5.125-13.09375 6.082031-19.289063 2.304687-8.398437-5.105469-17.507812-8.878906-27.058593-11.207031-7.046875-1.71875-12.015625-8.027344-12.015625-15.273438v-26.03125h-21.617188v26.03125c0 7.246094-4.96875 13.554688-12.015625 15.273438-9.550781 2.328125-18.660156 6.101562-27.058593 11.207031-6.183594 3.777344-14.160157 2.820313-19.289063-2.304687l-18.398437-18.410157-15.296876 15.296875 18.402344 18.398438c5.125 5.125 6.089844 13.105468 2.316406 19.300781-5.117187 8.398437-8.882812 17.496094-11.207031 27.058594-1.71875 7.042969-8.03125 12.003906-15.285156 12.003906h-26.023437v21.625h26.023437c7.253906 0 13.566406 4.960937 15.285156 12.003906 2.324219 9.5625 6.089844 18.664063 11.207031 27.058594 3.773438 6.195313 2.808594 14.164063-2.316406 19.300781l-18.402344 18.398438 15.296876 15.285156 18.398437-18.398438c5.128906-5.125 13.105469-6.078124 19.289063-2.304687 8.410156 5.105469 17.507812 8.878906 27.058593 11.207031 7.046875 1.707032 12.015625 8.019532 12.015625 15.273438v26.019531h21.617188v-26.019531c0-7.253906 4.96875-13.566406 12.015625-15.273438 9.550781-2.328125 18.648437-6.101562 27.058593-11.207031 6.183594-3.773437 14.160157-2.820313 19.289063 2.304687l18.398437 18.398438 15.296876-15.285156-18.402344-18.398438c-5.125-5.136718-6.089844-13.105468-2.316406-19.300781 5.117187-8.394531 8.882812-17.496094 11.207031-27.058594 1.722656-7.042969 8.03125-12.003906 15.285156-12.003906h26.023437c0-7.828125 0-13.800781 0-21.625h-26.023437c-7.253906 0-13.5625-4.960937-15.285156-12.003906zm-93.355469 84.632812c-34.09375 0-61.820312-27.730469-61.820312-61.820312 0-34.082031 27.726562-61.8125 61.820312-61.8125s61.820312 27.730469 61.820312 61.8125c0 34.089843-27.726562 61.820312-61.820312 61.820312zm0 0"/><path d="m256 230.554688c-16.742188 0-30.371094 13.621093-30.371094 30.363281 0 16.75 13.628906 30.371093 30.371094 30.371093s30.371094-13.621093 30.371094-30.371093c0-16.742188-13.628906-30.363281-30.371094-30.363281zm0 0"/></svg>