<?xml version="1.0" encoding="UTF-8"?>
<svg width="350px" height="407px" viewBox="0 0 350 407" version="1.1" xmlns="http://www.w3.org/2000/svg" xmlns:xlink="http://www.w3.org/1999/xlink">
    <!-- Generator: Sketch 55.2 (78181) - https://sketchapp.com -->
    <title>multicloud-management-icon</title>
    <desc>Created with Sketch.</desc>
    <defs>
        <polygon id="path-1" points="0 0 350 0 350 406.999601 0 406.999601"></polygon>
    </defs>
    <g id="Page-1" stroke="none" stroke-width="1" fill="none" fill-rule="evenodd">
        <g id="multicloud-management-icon">
            <path d="M176,218.850817 C167.813143,218.850817 161.142518,212.185209 161.142518,203.996032 C161.142518,195.806856 167.813143,189.141247 176,189.141247 C184.186857,189.141247 190.857482,195.806856 190.857482,203.996032 C190.857482,212.185209 184.186857,218.850817 176,218.850817 M176,179 C162.219319,179 151,190.212506 151,203.996032 C151,217.783526 162.219319,229 176,229 C189.780681,229 201,217.783526 201,203.996032 C201,190.212506 189.780681,179 176,179" id="Fill-1" fill="#005DFF" fill-rule="nonzero"></path>
            <g id="Group-5">
                <g id="Fill-3-Clipped">
                    <mask id="mask-2" fill="white">
                        <use xlink:href="#path-1"></use>
                    </mask>
                    <g id="path-1"></g>
                    <path d="M339.810227,299.767072 L175,395.99065 L10.1897727,299.767072 L10.1897727,107.236121 L175,11.0125422 L339.810227,107.236121 L339.810227,299.767072 Z M347.470455,99.8941598 L177.565341,0.693895098 C175.990341,-0.231830392 174.009659,-0.231830392 172.434659,0.693895098 L2.52954545,99.8941598 C0.9625,100.807915 0,102.487787 0,104.303326 L0,302.699866 C0,304.515405 0.9625,306.195277 2.52954545,307.109032 L172.434659,406.309297 C173.222159,406.77216 174.113068,406.999601 175,406.999601 C175.886932,406.999601 176.777841,406.77216 177.565341,406.309297 L347.470455,307.109032 C349.0375,306.195277 350,304.515405 350,302.699866 L350,104.303326 C350,102.487787 349.0375,100.807915 347.470455,99.8941598 L347.470455,99.8941598 Z" id="Fill-3" fill="#005DFF" fill-rule="nonzero" mask="url(#mask-2)"></path>
                </g>
            </g>
            <path d="M183.112937,90.2520005 C183.112937,95.2503459 179.02631,99.3159858 174,99.3159858 C168.97369,99.3159858 164.887063,95.2503459 164.887063,90.2520005 C164.887063,85.253655 168.97369,81.1920011 174,81.1920011 C179.02631,81.1920011 183.112937,85.253655 183.112937,90.2520005 M273.646505,137.816001 C278.668817,137.816001 282.755444,141.877655 282.755444,146.876 C282.755444,151.874346 278.668817,155.939986 273.646505,155.939986 C268.620195,155.939986 264.533569,151.874346 264.533569,146.876 C264.533569,141.877655 268.620195,137.816001 273.646505,137.816001 M282.755444,260.127986 C282.755444,265.122345 278.668817,269.187985 273.646505,269.187985 C268.620195,269.187985 264.533569,265.122345 264.533569,260.127986 C264.533569,255.12964 268.620195,251.064 273.646505,251.064 C278.668817,251.064 282.755444,255.12964 282.755444,260.127986 M174,325.811985 C168.97369,325.811985 164.887063,321.746345 164.887063,316.751985 C164.887063,311.75364 168.97369,307.688 174,307.688 C179.02631,307.688 183.112937,311.75364 183.112937,316.751985 C183.112937,321.746345 179.02631,325.811985 174,325.811985 M74.3574933,269.187985 C69.3311828,269.187985 65.2445565,265.122345 65.2445565,260.127986 C65.2445565,255.12964 69.3311828,251.064 74.3574933,251.064 C79.3838038,251.064 83.4704301,255.12964 83.4704301,260.127986 C83.4704301,265.122345 79.3838038,269.187985 74.3574933,269.187985 M65.2445565,146.876 C65.2445565,141.877655 69.3311828,137.816001 74.3574933,137.816001 C79.3838038,137.816001 83.4704301,141.877655 83.4704301,146.876 C83.4704301,151.874346 79.3838038,155.939986 74.3574933,155.939986 C69.3311828,155.939986 65.2445565,151.874346 65.2445565,146.876 M268.520228,165.358718 L268.520228,241.641282 C260.338978,243.897314 254.289012,251.287212 254.289012,260.127986 C254.289012,261.770185 254.560921,263.34861 254.952789,264.875218 L187.639415,303.10419 C184.136593,299.644411 179.318212,297.499985 174,297.499985 C168.677789,297.499985 163.851411,299.648397 160.348589,303.120134 L93.047211,264.875218 C93.4390793,263.34861 93.7149866,261.770185 93.7149866,260.127986 C93.7149866,251.287212 87.6610215,243.897314 79.4797715,241.641282 L79.4797715,165.358718 C87.6610215,163.106672 93.7149866,155.716774 93.7149866,146.876 C93.7149866,145.229815 93.4390793,143.655376 93.047211,142.128768 L160.348589,103.883852 C163.851411,107.351603 168.677789,109.504001 174,109.504001 C179.32621,109.504001 184.152587,107.351603 187.65541,103.883852 L254.952789,142.128768 C254.560921,143.655376 254.289012,145.229815 254.289012,146.876 C254.289012,155.716774 260.338978,163.106672 268.520228,165.358718 M154.642507,90.2520005 C154.642507,91.898186 154.918414,93.472625 155.310282,94.9992329 L88.0089046,133.244149 C84.506082,129.776397 79.6797043,127.627986 74.3574933,127.627986 C63.681082,127.627986 55,136.261491 55,146.876 C55,155.716774 61.0539651,163.106672 69.2352151,165.358718 L69.2352151,241.641282 C61.0539651,243.897314 55,251.287212 55,260.127986 C55,270.742494 63.681082,279.376 74.3574933,279.376 C79.6797043,279.376 84.506082,277.227589 88.0089046,273.755851 L155.310282,312.000767 C154.918414,313.527375 154.642507,315.1058 154.642507,316.751985 C154.642507,327.366494 163.323589,336 174,336 C184.676411,336 193.357493,327.366494 193.357493,316.751985 C193.357493,315.089856 193.081586,313.515417 192.685719,311.980837 L259.991095,273.755851 C263.493918,277.227589 268.320296,279.376 273.646505,279.376 C284.322917,279.376 293,270.742494 293,260.127986 C293,251.287212 286.950034,243.897314 278.768784,241.641282 L278.768784,165.358718 C286.950034,163.106672 293,155.716774 293,146.876 C293,136.261491 284.322917,127.627986 273.646505,127.627986 C268.320296,127.627986 263.493918,129.776397 259.991095,133.244149 L192.693716,94.9992329 C193.085585,93.472625 193.357493,91.898186 193.357493,90.2520005 C193.357493,79.6335058 184.676411,71 174,71 C163.323589,71 154.642507,79.6335058 154.642507,90.2520005" id="Fill-6" fill="#005DFF" fill-rule="nonzero"></path>
            <path d="M117.249815,163.738879 C115.931091,162.978211 114.434276,162.825228 113.077389,163.186439 C111.716263,163.556149 110.495065,164.431553 109.736057,165.75316 C108.977048,167.062018 108.824399,168.566354 109.189062,169.921957 C109.553725,171.286059 110.435701,172.501427 111.750185,173.262094 C113.064669,174.018512 114.565724,174.175745 115.922611,173.814534 C117.283737,173.444824 118.500695,172.569419 119.263943,171.247813 C120.022952,169.934706 120.175601,168.434619 119.810938,167.079016 C119.446275,165.714914 118.564299,164.499546 117.249815,163.738879" id="Fill-8" fill="#005DFF" fill-rule="nonzero"></path>
            <path d="M175.5,139 C177.018119,139 178.396299,138.387708 179.388589,137.392733 C180.38512,136.397758 181,135.015848 181,133.497874 C181,131.979899 180.38512,130.602242 179.388589,129.607267 C178.396299,128.612292 177.018119,128 175.5,128 C173.981881,128 172.603701,128.612292 171.611411,129.607267 C170.61488,130.602242 170,131.979899 170,133.497874 C170,135.015848 170.61488,136.397758 171.611411,137.392733 C172.603701,138.387708 173.981881,139 175.5,139" id="Fill-10" fill="#005DFF" fill-rule="nonzero"></path>
            <path d="M175.5,167 C177.018119,167 178.396299,166.387708 179.388589,165.392733 C180.38512,164.397758 181,163.020101 181,161.497874 C181,159.979899 180.38512,158.602242 179.388589,157.607267 C178.396299,156.612292 177.018119,156 175.5,156 C173.981881,156 172.603701,156.612292 171.611411,157.607267 C170.61488,158.602242 170,159.979899 170,161.497874 C170,163.020101 170.61488,164.397758 171.611411,165.392733 C172.603701,166.387708 173.981881,167 175.5,167" id="Fill-12" fill="#005DFF" fill-rule="nonzero"></path>
            <path d="M236.922611,163.186439 C235.561484,162.825228 234.064669,162.978211 232.750185,163.738879 C231.435701,164.499546 230.553725,165.723413 230.189062,167.079016 C229.824399,168.438868 229.977048,169.938955 230.736057,171.247813 C231.495065,172.569419 232.716263,173.453323 234.077389,173.814534 C235.434276,174.175745 236.935331,174.018512 238.249815,173.262094 C239.564299,172.501427 240.446275,171.286059 240.810938,169.921957 C241.175601,168.566354 241.022952,167.070517 240.263943,165.75316 C239.500695,164.440053 238.283737,163.556149 236.922611,163.186439" id="Fill-14" fill="#005DFF" fill-rule="nonzero"></path>
            <path d="M213.922611,177.186439 C212.565724,176.825228 211.064669,176.978211 209.750185,177.738879 C208.435701,178.499546 207.553725,179.723413 207.189062,181.079016 C206.824399,182.438868 206.977048,183.938955 207.736057,185.247813 C208.495065,186.569419 209.716263,187.453323 211.077389,187.814534 C212.434276,188.175745 213.935331,188.018512 215.249815,187.262094 C216.564299,186.501427 217.446275,185.286059 217.810938,183.921957 C218.175601,182.566354 218.022952,181.070517 217.263943,179.75316 C216.500695,178.440053 215.283737,177.556149 213.922611,177.186439" id="Fill-16" fill="#005DFF" fill-rule="nonzero"></path>
            <path d="M238.249773,233.736481 C236.935269,232.975793 235.43419,232.822806 234.077283,233.192526 C232.716135,233.553746 231.494918,234.437674 230.740138,235.746567 C229.976878,237.068209 229.824226,238.564087 230.188895,239.928225 C230.553564,241.283864 231.435553,242.507764 232.750057,243.264202 C234.064562,244.02489 235.56564,244.173628 236.926788,243.812408 C238.283695,243.451187 239.504912,242.567259 240.263932,241.254117 C241.022952,239.932475 241.175604,238.436597 240.810935,237.076708 C240.450507,235.721069 239.568517,234.497169 238.249773,233.736481" id="Fill-18" fill="#005DFF" fill-rule="nonzero"></path>
            <path d="M215.249773,219.736481 C213.935269,218.975793 212.43419,218.822806 211.077283,219.192526 C209.716135,219.553746 208.494918,220.437674 207.740138,221.746567 C206.976878,223.068209 206.824226,224.564087 207.188895,225.928225 C207.553564,227.283864 208.435553,228.507764 209.750057,229.264202 C211.064562,230.02489 212.56564,230.173628 213.926788,229.812408 C215.283695,229.451187 216.504912,228.567259 217.263932,227.254117 C218.022952,225.932475 218.175604,224.436597 217.810935,223.076708 C217.450507,221.716819 216.568517,220.497169 215.249773,219.736481" id="Fill-20" fill="#005DFF" fill-rule="nonzero"></path>
            <path d="M115.922611,233.187442 C114.565724,232.826183 113.064669,232.974937 111.750185,233.739955 C110.435701,234.500723 109.553725,235.716251 109.189062,237.080533 C108.824399,238.436315 108.977048,239.93235 109.736057,241.249881 C110.495065,242.563162 111.716263,243.447183 113.077389,243.808441 C114.434276,244.1782 115.935331,244.020946 117.249815,243.264428 C118.564299,242.503661 119.446275,241.279632 119.810938,239.92385 C120.175601,238.559568 120.022952,237.063533 119.263943,235.750252 C118.500695,234.432721 117.283737,233.5487 115.922611,233.187442" id="Fill-22" fill="#005DFF" fill-rule="nonzero"></path>
            <path d="M138.923059,219.187445 C137.562082,218.826181 136.065432,218.974936 134.751093,219.739966 C133.436754,220.500746 132.554875,221.716293 132.186012,223.080597 C131.825628,224.4364 131.978261,225.932458 132.737186,227.250009 C133.496111,228.563311 134.717174,229.447345 136.078151,229.808609 C137.434888,230.178374 138.935779,230.021117 140.250118,229.260338 C141.564457,228.503808 142.446336,227.27976 142.810959,225.923958 C143.175582,224.559654 143.022949,223.063596 142.264024,221.750295 C141.50086,220.432743 140.284036,219.548709 138.923059,219.187445" id="Fill-24" fill="#005DFF" fill-rule="nonzero"></path>
            <path d="M140.250118,177.738879 C138.931539,176.978211 137.434888,176.825228 136.078151,177.186439 C134.717174,177.556149 133.496111,178.431553 132.737186,179.75316 C131.978261,181.062018 131.825628,182.566354 132.186012,183.921957 C132.554875,185.286059 133.436754,186.501427 134.751093,187.262094 C136.065432,188.018512 137.562082,188.175745 138.923059,187.814534 C140.284036,187.444824 141.50086,186.569419 142.264024,185.247813 C143.022949,183.934706 143.175582,182.434619 142.810959,181.079016 C142.446336,179.714914 141.564457,178.499546 140.250118,177.738879" id="Fill-26" fill="#005DFF" fill-rule="nonzero"></path>
            <path d="M174.5,268 C172.981881,268 171.603701,268.612292 170.611411,269.607267 C169.61488,270.602242 169,271.979899 169,273.502126 C169,275.020101 169.61488,276.397758 170.611411,277.392733 C171.603701,278.387708 172.981881,279 174.5,279 C176.018119,279 177.396299,278.387708 178.388589,277.392733 C179.38512,276.397758 180,275.020101 180,273.502126 C180,271.979899 179.38512,270.602242 178.388589,269.607267 C177.396299,268.612292 176.018119,268 174.5,268" id="Fill-28" fill="#005DFF" fill-rule="nonzero"></path>
            <path d="M174.5,240 C172.981881,240 171.603701,240.612292 170.611411,241.607267 C169.61488,242.602242 169,243.979899 169,245.502126 C169,247.020101 169.61488,248.397758 170.611411,249.392733 C171.603701,250.387708 172.981881,251 174.5,251 C176.018119,251 177.396299,250.387708 178.388589,249.392733 C179.38512,248.397758 180,247.020101 180,245.502126 C180,243.979899 179.38512,242.602242 178.388589,241.607267 C177.396299,240.612292 176.018119,240 174.5,240" id="Fill-30" fill="#005DFF" fill-rule="nonzero"></path>
        </g>
    </g>
</svg>