<svg id="Capa_1" enable-background="new 0 0 512.066 512.066" height="512" viewBox="0 0 512.066 512.066" width="512" xmlns="http://www.w3.org/2000/svg"><g><path d="m.044 259.661h30v30h-30z"/><path d="m165.436 151.644c-16.401 11.065-30.559 22.888-39.716 31.025l25.927 25.927 71.586-84.768c-16.686 3.893-36.188 13.237-57.797 27.816z"/><path d="m388.192 288.79-84.768 71.585 25.927 25.927c8.136-9.157 19.959-23.313 31.025-39.716 14.58-21.609 23.923-41.111 27.816-57.796z"/><path d="m191.411 413.912c-15.128 7.738-35.682 14.762-60.505 14.763-10.165 0-21.035-1.176-32.547-3.962l-8.896-2.154-2.153-8.896c-9.618-39.734-.054-71.927 10.89-93.246-8.014 1.628-17.119 4.128-26.522 7.979-34.139 13.981-57.636 39.202-69.967 75.05l36.348 23.606-11.284 13.02c-13.965 16.114-17.877 32.497-11.961 50.085 1.745 5.188 4.135 9.766 6.467 13.487 17.879-11.241 38.36-13.25 59.043-5.5 10.538 3.949 19.047 9.603 24.6 13.921 37.401-12.076 63.729-36.056 78.317-71.371 3.921-9.494 6.486-18.689 8.17-26.782z"/><path d="m174.317 275.811h37.497v86.29h-37.497z" transform="matrix(.707 -.707 .707 .707 -168.989 229.941)"/><path d="m187.082 381.913-56.973-56.974c-9.014 13.971-20.616 39.343-15.474 72.447 33.105 5.145 58.476-6.458 72.447-15.473z"/><path d="m436.816 208.462-27.601-27.601c-8.558 4.919-18.284 7.552-28.42 7.552-15.275 0-29.636-5.948-40.437-16.75-10.801-10.801-16.749-25.162-16.749-40.437 0-10.136 2.634-19.862 7.552-28.42l-27.601-27.601-130.625 154.68 109.202 109.202z"/><path d="m323.615 52.834 28.76 28.76c8.558-4.919 18.284-7.552 28.421-7.552 15.274 0 29.635 5.948 40.436 16.75 10.801 10.801 16.75 25.162 16.75 40.436 0 10.136-2.634 19.863-7.553 28.421l28.76 28.76c21.604-22.169 37.302-49.285 45.79-79.349 9.456-33.491 9.38-68.544-.154-101.859-33.314-9.534-68.368-9.61-101.859-.154-30.066 8.485-57.182 24.183-79.351 45.787z"/><path d="m400.018 150.451c10.6-10.6 10.6-27.847 0-38.447-5.3-5.3-12.262-7.95-19.223-7.95-6.962 0-13.924 2.65-19.224 7.95-10.6 10.6-10.6 27.847 0 38.447 10.6 10.599 27.847 10.6 38.447 0z"/><path d="m222.405 482.021h30v30h-30z"/><path d="m252.405 422.021h30v30h-30z"/></g></svg>