<?xml version="1.0" encoding="iso-8859-1"?>
<!-- Generator: Adobe Illustrator 19.0.0, SVG Export Plug-In . SVG Version: 6.00 Build 0)  -->
<svg version="1.1" id="Capa_1" xmlns="http://www.w3.org/2000/svg" xmlns:xlink="http://www.w3.org/1999/xlink" x="0px" y="0px"
	 viewBox="0 0 512 512" style="enable-background:new 0 0 512 512;" xml:space="preserve">
<g>
	<g>
		<path d="M166,61c-41.353,0-76,33.647-76,75c0,41.353,34.647,75,76,75c41.353,0,76-33.647,76-75C242,94.647,207.353,61,166,61z"/>
	</g>
</g>
<g>
	<g>
		<path d="M407,241c-41.353,0-75,33.647-75,75c0,41.353,33.647,75,75,75c41.353,0,75-33.647,75-75C482,274.647,448.353,241,407,241z
			"/>
	</g>
</g>
<g>
	<g>
		<path d="M480.251,391c-18.938,18.499-44.752,30-73.251,30c-28.499,0-54.313-11.501-73.251-30C314.217,410.08,302,436.608,302,466
			v31c0,8.291,6.709,15,15,15h180c8.291,0,15-6.709,15-15v-31C512,436.608,499.783,410.08,480.251,391z"/>
	</g>
</g>
<g>
	<g>
		<path d="M240.251,211c-18.939,18.499-45.753,30-74.251,30c-28.498,0-55.313-11.501-74.251-30C72.217,230.08,60,256.608,60,286v15
			h212v-15C272,256.608,259.783,230.08,240.251,211z"/>
	</g>
</g>
<g>
	<g>
		<path d="M467,0H317c-24.814,0-45,21.186-45,46v60c0,19.556,12.539,36.24,30,42.437V196c0,6.064,3.647,11.543,9.258,13.857
			c5.532,2.307,12.017,1.077,16.348-3.252L383.211,151H467c24.814,0,45-20.186,45-45V46C512,21.186,491.814,0,467,0z M437,91h-90
			c-8.291,0-15-6.709-15-15s6.709-15,15-15h90c8.291,0,15,6.709,15,15S445.291,91,437,91z"/>
	</g>
</g>
<g>
	<g>
		<path d="M303.516,331H30c-16.569,0-30,13.431-30,30c0,16.567,13.431,30,30,30h264.939c5.156-7.639,11.074-14.852,17.842-21.46
			l2.869-2.803C309.562,355.826,305.378,343.849,303.516,331z"/>
	</g>
</g>
<g>
	<g>
		<path d="M272,466c0-15.641,3.171-30.685,8.276-45H30v76c0,8.284,6.716,15,15,15h229.763c-1.681-4.715-2.763-9.716-2.763-15V466z"
			/>
	</g>
</g>
<g>
</g>
<g>
</g>
<g>
</g>
<g>
</g>
<g>
</g>
<g>
</g>
<g>
</g>
<g>
</g>
<g>
</g>
<g>
</g>
<g>
</g>
<g>
</g>
<g>
</g>
<g>
</g>
<g>
</g>
</svg>
