<svg viewBox="0 0 464 67.21" xmlns="http://www.w3.org/2000/svg"><g fill="#021923"><path d="m76.12 8.4h7.88v45h-7.88z"/><path d="m92.52 21.33h6.37l1.1 3.86a11.59 11.59 0 0 1 9.78-4.76c7.27 0 11.52 4.18 11.52 13.58v19.43h-7.72v-18.44c0-5.66-2.64-7.47-6.25-7.47-3.92 0-7.07 2.77-7.07 8.24v17.67h-7.73z"/><path d="m127.59 44.76 6.82-2.19c.78 2.83 2.45 5.34 6.57 5.34 3.47 0 5.72-1.35 5.72-3.67 0-1.61-1-3-5.92-3.8-6.69-1.22-12.29-3.28-12.29-10 0-5.53 4.7-10 12.49-10 6.43 0 10.87 3.41 12.22 9.2l-6.75 1.93c-.58-2.31-1.93-4.69-5.47-4.69s-5.28 1.61-5.28 3.28c0 2.19 2.32 3 6.44 3.73 7.14 1.29 11.84 3.8 11.84 10.23 0 5.73-5.09 10.23-13 10.23-6.98-.01-11.78-3.61-13.39-9.59z"/><path d="m159.83 12.39a4.53 4.53 0 0 1 4.5-4.57 4.65 4.65 0 0 1 4.67 4.57 4.65 4.65 0 0 1 -4.67 4.61 4.53 4.53 0 0 1 -4.5-4.61zm.71 8.94h7.72v32.11h-7.72z"/><path d="m176.24 56.79 7.2-1.61c.78 3.28 3.16 5.47 7.66 5.47 5.41 0 8.69-2.9 8.69-8.3v-3.93c-1.42 2.38-4.76 4.77-9.65 4.77-9 0-15.32-7-15.32-16.35s6.44-16.41 15.25-16.41c5.15 0 8.37 2.58 9.72 4.76l1.42-3.86h6.3v30.89c0 9-6 15-16.41 15-8.62-.01-13.25-4.51-14.86-10.43zm23.55-19.95c0-5.79-3.67-9.46-8.62-9.46s-8.63 3.67-8.63 9.46 3.67 9.4 8.69 9.4 8.56-3.67 8.56-9.4z"/><path d="m215.23 8.4h7.66v16.47a11.51 11.51 0 0 1 9.52-4.44c7.27 0 11.46 4.18 11.46 13.58v19.43h-7.66v-18.27c0-5.79-2.64-7.53-6.24-7.53-3.93 0-7.08 2.77-7.08 8.24v17.56h-7.66z"/><path d="m254.29 44.82v-16.73h-5.53v-6.76h5.53v-8.33h7.71v8.36h8.17v6.76h-8.17v15.61c0 2.38 1.1 3.41 3 3.41a4.35 4.35 0 0 0 3-1.1l3.21 5.47c-.9 1.1-3.41 2.83-7.85 2.83-4.95 0-9.07-3.21-9.07-9.52z"/><path d="m279.64 8.4h28.25v7.08h-20.4v12.93h17.83v6.89h-17.83v18.14h-7.85z"/><path d="m314.2 12.39a4.53 4.53 0 0 1 4.5-4.57 4.64 4.64 0 0 1 4.63 4.57 4.64 4.64 0 0 1 -4.63 4.61 4.53 4.53 0 0 1 -4.5-4.61zm.7 8.94h7.73v32.11h-7.73z"/><path d="m330.6 21.33h6.4l1.1 3.86a11.59 11.59 0 0 1 9.78-4.76c7.27 0 11.52 4.18 11.52 13.58v19.43h-7.72v-18.44c0-5.66-2.64-7.47-6.25-7.47-3.92 0-7.07 2.77-7.07 8.24v17.67h-7.76z"/><path d="m365.67 37.36c0-9.4 6.37-16.93 15.51-16.93a12.31 12.31 0 0 1 10 4.51v-16.54h7.73v45h-6.37l-1-3.92a12.53 12.53 0 0 1 -10.24 4.82c-9 .04-15.63-7.55-15.63-16.94zm25.55 0c0-5.86-3.73-10-8.88-10s-8.95 4.18-8.95 10 3.86 10 8.95 10 8.88-4.15 8.88-10z"/><path d="m412.58 39.93a8.87 8.87 0 0 0 8.88 8c4.51 0 7.08-2.7 7.85-4.89l6.5 2c-1.86 5.15-6.5 9.26-14.35 9.26-9.2 0-16.28-7.07-16.28-17 0-9.72 7.08-16.93 16.22-16.93 9.33 0 15.18 6.76 15.18 16.54v3zm8.88-13.13a8.62 8.62 0 0 0 -8.81 7.2h17.11a8 8 0 0 0 -8.3-7.2z"/><path d="m442.89 21.33h6.37l1.09 3.73a9.25 9.25 0 0 1 8.11-4.63 9.41 9.41 0 0 1 5.54 1.57l-2.77 6.75a6.47 6.47 0 0 0 -3.86-1.09c-3.73 0-6.76 3-6.76 8.3v17.5h-7.72z"/></g><path d="m48.53 24.22a2.84 2.84 0 0 1 -.46.24l-.77.36-.3.18a12 12 0 0 1 -2.33.81 24.64 24.64 0 0 1 -6.94.62h-1.2l-1.67-1.83a1.07 1.07 0 0 0 -.51-.32 1.35 1.35 0 0 0 -1.69.66l-1.66 3.44-.09-.38c-.38-2-.74-3.89-1.08-5.79l-.29-1.46c-.54-2.82-1.12-5.75-1.76-8.58a1.91 1.91 0 0 0 -1.55-1.52 2 2 0 0 0 -2.3 1.51l-1.41 6.59c-.43 2.16-.86 4.37-1.29 6.58-.23 1.13-.43 2.29-.62 3.42-.09.49-.17 1-.26 1.48l-2.07-8.23-.08-.17a1.3 1.3 0 0 0 -.68-.75 1.2 1.2 0 0 0 -.91-.18 1.63 1.63 0 0 0 -1.06.79l-2.43 4.51-6 .47a.88.88 0 0 0 -.85.85.91.91 0 0 0 .82 1h-.09l6.83.55a1.4 1.4 0 0 0 1.22-.62l.07-.11v-.12l1-1.77 2.88 12.86a1.8 1.8 0 0 0 1.43 1.42 2 2 0 0 0 1.34-.28 1.61 1.61 0 0 0 .75-1.12l.16-.65c.5-2 1-4 1.35-5.93.54-2.16 1-4.41 1.41-6.6.26-1.28.51-2.59.77-3.92l.24.87c.8 3 1.7 6.47 2.52 9.88a1.25 1.25 0 0 0 .81 1 1.47 1.47 0 0 0 1.09 0 1.38 1.38 0 0 0 .75-.77l2.43-5.55.72.82a1.17 1.17 0 0 0 1 .5h1.73c.59 0 1.18 0 1.77-.05s1.22-.07 1.78-.12 1.22-.13 1.78-.22 1.2-.21 1.76-.34a16.34 16.34 0 0 0 1.71-.49 12.49 12.49 0 0 0 1.88-.76l.91-.48.36-.18.55-.34.28-.16c.32-.18.44-.26.76-.47l.23-.16v-.21" fill="#ff5142"/><path d="m7 8.27a26 26 0 1 0 19-8.27 25.9 25.9 0 0 0 -19 8.27zm33.41 37.21c4.59 4.7 9.09 9.52 13.79 14.08a12.67 12.67 0 0 0 3.69 2.79c1.4.59 3.08.51 3.82-.57a3.15 3.15 0 0 0 0-3 12.73 12.73 0 0 0 -3.29-4c-1.52-1.46-3.11-2.84-4.72-4.21-3.46-2.94-6.87-6-10.27-8.93m-40.43-15.64a23 23 0 1 1 23 23 23.05 23.05 0 0 1 -23-23z" fill="#021923"/></svg>