<svg id="Capa_1" enable-background="new 0 0 512 512" height="512" viewBox="0 0 512 512" width="512" xmlns="http://www.w3.org/2000/svg"><g><path d="m406 225.5h-218.192c-5.31 0-10.224-2.807-12.92-7.381-8.228-13.952-23.472-22.619-39.782-22.619-19.396 0-35.9 12.577-41.814 30h27.708c8.284 0 15 6.716 15 15s-6.716 15-15 15h-27.47c12.846 36.218 62.243 40.668 81.443 7.487 2.681-4.634 7.629-7.487 12.983-7.487h218.044c8.271 0 15-6.729 15-15s-6.729-15-15-15z"/><path d="m91 375.5h120v30h-120z"/><path d="m467 106.5h-106v-76c0-8.284-6.716-15-15-15h-180c-8.284 0-15 6.716-15 15v76h-106c-24.813 0-45 20.187-45 45v300c0 24.813 20.187 45 45 45h422c24.813 0 45-20.187 45-45v-300c0-24.813-20.187-45-45-45zm-286-61h150v61h-150zm269.95 360c0 6.882-4.683 12.881-11.359 14.552l-59.95 15c-9.485 2.371-18.641-4.821-18.641-14.552v-15h-120v15c0 8.284-6.716 15-15 15h-150c-8.284 0-15-6.716-15-15v-60c0-8.284 6.716-15 15-15h150c8.284 0 15 6.716 15 15v15h120v-15c0-9.748 9.169-16.917 18.641-14.552l59.95 15c6.676 1.671 11.359 7.67 11.359 14.552zm-44.95-120h-210.017c-14.064 18.696-36.317 30-59.983 30-41.405 0-75.05-33.645-75.05-75v-.845c0-40.89 33.266-74.155 74.155-74.155 23.883 0 46.396 11.307 60.657 30h210.238c24.813 0 45 20.187 45 45s-20.187 45-45 45z"/><path d="m391 401.284 29.95-7.493v-6.582l-29.95-7.493z"/></g></svg>